<svg xmlns="http://www.w3.org/2000/svg" viewBox="0 0 200 200" width="200" height="200">
  <rect width="200" height="200" fill="#f0f8ff" stroke="#6f42c1" stroke-width="2" rx="10"/>
  <rect x="40" y="50" width="120" height="80" fill="#ffffff" stroke="#6f42c1" stroke-width="2" rx="8"/>
  <rect x="50" y="60" width="30" height="20" fill="#dc3545" rx="3"/>
  <rect x="85" y="60" width="30" height="20" fill="#28a745" rx="3"/>
  <rect x="120" y="60" width="30" height="20" fill="#007bff" rx="3"/>
  <rect x="50" y="85" width="30" height="20" fill="#ffc107" rx="3"/>
  <rect x="85" y="85" width="30" height="20" fill="#6f42c1" rx="3"/>
  <rect x="120" y="85" width="30" height="20" fill="#fd7e14" rx="3"/>
  <rect x="50" y="110" width="100" height="15" fill="#6f42c1" rx="7"/>
  <text x="100" y="122" text-anchor="middle" font-family="Arial, sans-serif" font-size="12" fill="#ffffff">Custom Options</text>
  <circle cx="70" cy="145" r="6" fill="#6f42c1"/>
  <circle cx="100" cy="145" r="6" fill="#6f42c1"/>
  <circle cx="130" cy="145" r="6" fill="#6f42c1"/>
  <text x="100" y="170" text-anchor="middle" font-family="Arial, sans-serif" font-size="12" fill="#333">Customization</text>
  <text x="100" y="185" text-anchor="middle" font-family="Arial, sans-serif" font-size="12" fill="#333">Options</text>
</svg>