<svg xmlns="http://www.w3.org/2000/svg" viewBox="0 0 200 150" width="200" height="150">
  <defs>
    <linearGradient id="teamGradient" x1="0%" y1="0%" x2="100%" y2="100%">
      <stop offset="0%" style="stop-color:#3b82f6;stop-opacity:1" />
      <stop offset="100%" style="stop-color:#1d4ed8;stop-opacity:1" />
    </linearGradient>
  </defs>
  
  <!-- Background -->
  <rect width="200" height="150" fill="#f8fafc"/>
  
  <!-- Team members -->
  <!-- Person 1 -->
  <g transform="translate(30, 30)">
    <circle cx="20" cy="20" r="15" fill="url(#teamGradient)"/>
    <circle cx="20" cy="15" r="6" fill="#ffffff"/>
    <path d="M10 35 Q20 30 30 35 L30 50 L10 50 Z" fill="url(#teamGradient)"/>
  </g>
  
  <!-- Person 2 -->
  <g transform="translate(90, 20)">
    <circle cx="20" cy="20" r="15" fill="#10b981"/>
    <circle cx="20" cy="15" r="6" fill="#ffffff"/>
    <path d="M10 35 Q20 30 30 35 L30 50 L10 50 Z" fill="#10b981"/>
  </g>
  
  <!-- Person 3 -->
  <g transform="translate(150, 30)">
    <circle cx="20" cy="20" r="15" fill="#f59e0b"/>
    <circle cx="20" cy="15" r="6" fill="#ffffff"/>
    <path d="M10 35 Q20 30 30 35 L30 50 L10 50 Z" fill="#f59e0b"/>
  </g>
  
  <!-- Person 4 -->
  <g transform="translate(60, 80)">
    <circle cx="20" cy="20" r="15" fill="#8b5cf6"/>
    <circle cx="20" cy="15" r="6" fill="#ffffff"/>
    <path d="M10 35 Q20 30 30 35 L30 50 L10 50 Z" fill="#8b5cf6"/>
  </g>
  
  <!-- Person 5 -->
  <g transform="translate(120, 80)">
    <circle cx="20" cy="20" r="15" fill="#ef4444"/>
    <circle cx="20" cy="15" r="6" fill="#ffffff"/>
    <path d="M10 35 Q20 30 30 35 L30 50 L10 50 Z" fill="#ef4444"/>
  </g>
  
  <!-- Connection lines -->
  <g stroke="#e5e7eb" stroke-width="2" opacity="0.5">
    <line x1="50" y1="50" x2="110" y2="40"/>
    <line x1="110" y1="40" x2="170" y2="50"/>
    <line x1="50" y1="50" x2="80" y2="100"/>
    <line x1="110" y1="40" x2="80" y2="100"/>
    <line x1="110" y1="40" x2="140" y2="100"/>
    <line x1="170" y1="50" x2="140" y2="100"/>
    <line x1="80" y1="100" x2="140" y2="100"/>
  </g>
</svg>