<svg xmlns="http://www.w3.org/2000/svg" viewBox="0 0 100 100" width="100" height="100">
  <defs>
    <linearGradient id="techGrad" x1="0%" y1="0%" x2="100%" y2="100%">
      <stop offset="0%" style="stop-color:#2563eb;stop-opacity:1" />
      <stop offset="100%" style="stop-color:#1d4ed8;stop-opacity:1" />
    </linearGradient>
  </defs>
  
  <!-- Background circle -->
  <circle cx="50" cy="50" r="45" fill="url(#techGrad)" stroke="#1e40af" stroke-width="2"/>
  
  <!-- Gear/cog icon -->
  <g transform="translate(50,50)">
    <path d="M-8,-20 L-4,-18 L4,-18 L8,-20 L12,-12 L8,-4 L4,-2 L-4,-2 L-8,-4 L-12,-12 Z" 
          fill="white" opacity="0.9"/>
    <circle cx="0" cy="-12" r="6" fill="white"/>
    
    <!-- Second gear -->
    <g transform="translate(12,8) scale(0.7)">
      <path d="M-8,-20 L-4,-18 L4,-18 L8,-20 L12,-12 L8,-4 L4,-2 L-4,-2 L-8,-4 L-12,-12 Z" 
            fill="white" opacity="0.8"/>
      <circle cx="0" cy="-12" r="6" fill="white"/>
    </g>
    
    <!-- Document lines -->
    <rect x="-18" y="2" width="20" height="2" fill="white" opacity="0.9"/>
    <rect x="-18" y="6" width="16" height="2" fill="white" opacity="0.9"/>
    <rect x="-18" y="10" width="18" height="2" fill="white" opacity="0.9"/>
    <rect x="-18" y="14" width="14" height="2" fill="white" opacity="0.9"/>
  </g>
</svg>