<svg xmlns="http://www.w3.org/2000/svg" viewBox="0 0 200 200" width="200" height="200">
  <rect width="200" height="200" fill="#fff3cd" stroke="#ffc107" stroke-width="2" rx="10"/>
  <rect x="40" y="70" width="120" height="80" fill="#ffc107" stroke="#ffffff" stroke-width="2" rx="8"/>
  <rect x="50" y="80" width="100" height="60" fill="#ffffff" stroke="#ffc107" stroke-width="1" rx="5"/>
  <rect x="60" y="90" width="80" height="8" fill="#ffc107" rx="2"/>
  <rect x="60" y="105" width="60" height="6" fill="#6c757d" rx="1"/>
  <rect x="60" y="115" width="70" height="6" fill="#6c757d" rx="1"/>
  <rect x="60" y="125" width="50" height="6" fill="#6c757d" rx="1"/>
  <rect x="80" y="50" width="40" height="20" fill="#ffc107" stroke="#ffffff" stroke-width="2" rx="3"/>
  <circle cx="90" cy="60" r="3" fill="#ffffff"/>
  <circle cx="110" cy="60" r="3" fill="#ffffff"/>
  <circle cx="50" cy="160" r="8" fill="#6c757d"/>
  <circle cx="150" cy="160" r="8" fill="#6c757d"/>
  <circle cx="50" cy="160" r="4" fill="#ffffff"/>
  <circle cx="150" cy="160" r="4" fill="#ffffff"/>
  <text x="100" y="185" text-anchor="middle" font-family="Arial, sans-serif" font-size="12" fill="#333">Travel Bags</text>
</svg>