<svg xmlns="http://www.w3.org/2000/svg" viewBox="0 0 200 200" width="200" height="200">
  <rect width="200" height="200" fill="#e7f3ff" stroke="#17a2b8" stroke-width="2" rx="10"/>
  <rect x="50" y="60" width="100" height="80" fill="#17a2b8" stroke="#ffffff" stroke-width="2" rx="8"/>
  <rect x="60" y="70" width="80" height="60" fill="#ffffff" stroke="#17a2b8" stroke-width="1" rx="5"/>
  <rect x="70" y="80" width="60" height="8" fill="#17a2b8" rx="2"/>
  <rect x="70" y="95" width="50" height="6" fill="#6c757d" rx="1"/>
  <rect x="70" y="105" width="55" height="6" fill="#6c757d" rx="1"/>
  <rect x="70" y="115" width="45" height="6" fill="#6c757d" rx="1"/>
  <rect x="80" y="40" width="40" height="20" fill="#17a2b8" stroke="#ffffff" stroke-width="2" rx="3"/>
  <circle cx="90" cy="50" r="3" fill="#ffffff"/>
  <circle cx="110" cy="50" r="3" fill="#ffffff"/>
  <path d="M75 150 Q100 160 125 150" stroke="#17a2b8" stroke-width="3" fill="none"/>
  <circle cx="85" cy="155" r="4" fill="#ffffff" stroke="#17a2b8" stroke-width="1"/>
  <circle cx="100" cy="158" r="4" fill="#ffffff" stroke="#17a2b8" stroke-width="1"/>
  <circle cx="115" cy="155" r="4" fill="#ffffff" stroke="#17a2b8" stroke-width="1"/>
  <text x="100" y="185" text-anchor="middle" font-family="Arial, sans-serif" font-size="12" fill="#333">Cooler Bags</text>
</svg>