<svg width="80" height="80" viewBox="0 0 80 80" fill="none" xmlns="http://www.w3.org/2000/svg">
  <!-- Cooler bag body -->
  <rect x="15" y="25" width="50" height="35" rx="3" fill="#2563eb" stroke="#1e40af" stroke-width="2"/>
  
  <!-- Cooler bag lid -->
  <rect x="15" y="20" width="50" height="8" rx="2" fill="#3b82f6" stroke="#1e40af" stroke-width="2"/>
  
  <!-- Handle -->
  <path d="M25 20 Q25 15 30 15 L50 15 Q55 15 55 20" stroke="#1e40af" stroke-width="3" fill="none"/>
  
  <!-- Zipper -->
  <line x1="20" y1="23" x2="60" y2="23" stroke="#64748b" stroke-width="2"/>
  <circle cx="58" cy="23" r="2" fill="#64748b"/>
  
  <!-- Cooling elements -->
  <circle cx="25" cy="35" r="3" fill="#60a5fa" opacity="0.7"/>
  <circle cx="35" cy="40" r="3" fill="#60a5fa" opacity="0.7"/>
  <circle cx="45" cy="35" r="3" fill="#60a5fa" opacity="0.7"/>
  <circle cx="55" cy="40" r="3" fill="#60a5fa" opacity="0.7"/>
  
  <!-- Insulation lines -->
  <line x1="20" y1="30" x2="60" y2="30" stroke="#1e40af" stroke-width="1" opacity="0.5"/>
  <line x1="20" y1="50" x2="60" y2="50" stroke="#1e40af" stroke-width="1" opacity="0.5"/>
  
  <!-- Side pockets -->
  <rect x="10" y="35" width="8" height="15" rx="2" fill="#3b82f6" stroke="#1e40af" stroke-width="1"/>
  <rect x="62" y="35" width="8" height="15" rx="2" fill="#3b82f6" stroke="#1e40af" stroke-width="1"/>
</svg>