<svg xmlns="http://www.w3.org/2000/svg" viewBox="0 0 100 100" width="100" height="100">
  <defs>
    <linearGradient id="corporateGradient" x1="0%" y1="0%" x2="100%" y2="100%">
      <stop offset="0%" style="stop-color:#805AD5;stop-opacity:1" />
      <stop offset="100%" style="stop-color:#6B46C1;stop-opacity:1" />
    </linearGradient>
  </defs>
  
  <!-- Background circle -->
  <circle cx="50" cy="50" r="45" fill="url(#corporateGradient)" stroke="#553C9A" stroke-width="2"/>
  
  <!-- Corporate promotional elements -->
  <g transform="translate(50,50)">
    <!-- Building/skyscraper -->
    <rect x="-8" y="-15" width="16" height="25" fill="white" stroke="#553C9A" stroke-width="1.5" rx="1"/>
    
    <!-- Building windows -->
    <rect x="-6" y="-12" width="2" height="2" fill="#553C9A"/>
    <rect x="-2" y="-12" width="2" height="2" fill="#553C9A"/>
    <rect x="2" y="-12" width="2" height="2" fill="#553C9A"/>
    <rect x="6" y="-12" width="2" height="2" fill="#553C9A"/>
    
    <rect x="-6" y="-8" width="2" height="2" fill="#553C9A"/>
    <rect x="-2" y="-8" width="2" height="2" fill="#553C9A"/>
    <rect x="2" y="-8" width="2" height="2" fill="#553C9A"/>
    <rect x="6" y="-8" width="2" height="2" fill="#553C9A"/>
    
    <rect x="-6" y="-4" width="2" height="2" fill="#553C9A"/>
    <rect x="-2" y="-4" width="2" height="2" fill="#553C9A"/>
    <rect x="2" y="-4" width="2" height="2" fill="#553C9A"/>
    <rect x="6" y="-4" width="2" height="2" fill="#553C9A"/>
    
    <rect x="-6" y="0" width="2" height="2" fill="#553C9A"/>
    <rect x="-2" y="0" width="2" height="2" fill="#553C9A"/>
    <rect x="2" y="0" width="2" height="2" fill="#553C9A"/>
    <rect x="6" y="0" width="2" height="2" fill="#553C9A"/>
    
    <!-- Entrance -->
    <rect x="-3" y="6" width="6" height="4" fill="#553C9A"/>
    
    <!-- Briefcase -->
    <rect x="-20" y="5" width="8" height="5" fill="#8B4513" stroke="#744210" stroke-width="1" rx="0.5"/>
    <rect x="-18" y="6" width="4" height="1" fill="#744210"/>
    <rect x="-17" y="3" width="2" height="2" fill="none" stroke="#744210" stroke-width="1" rx="1"/>
    
    <!-- Handshake -->
    <g transform="translate(15,8)">
      <!-- Left hand -->
      <rect x="-3" y="-1" width="3" height="1.5" fill="#F7FAFC" rx="0.5"/>
      <rect x="-4" y="-0.5" width="1" height="0.5" fill="#F7FAFC" rx="0.2"/>
      <!-- Right hand -->
      <rect x="0" y="-1" width="3" height="1.5" fill="#F7FAFC" rx="0.5"/>
      <rect x="3" y="-0.5" width="1" height="0.5" fill="#F7FAFC" rx="0.2"/>
      <!-- Sleeves -->
      <rect x="-5" y="-0.5" width="2" height="2" fill="#2D3748" rx="0.5"/>
      <rect x="3" y="-0.5" width="2" height="2" fill="#4A5568" rx="0.5"/>
    </g>
    
    <!-- Chart/graph -->
    <g transform="translate(-15,-8)">
      <rect x="0" y="0" width="8" height="6" fill="white" stroke="#553C9A" stroke-width="1" rx="0.5"/>
      <!-- Bar chart -->
      <rect x="1" y="4" width="1" height="1" fill="#805AD5"/>
      <rect x="3" y="3" width="1" height="2" fill="#805AD5"/>
      <rect x="5" y="2" width="1" height="3" fill="#805AD5"/>
      <!-- Arrow up -->
      <polygon points="6.5,1 7,0.5 7.5,1" fill="#48BB78"/>
    </g>
    
    <!-- Trophy -->
    <g transform="translate(18,-10)">
      <rect x="-1" y="2" width="2" height="3" fill="#FFD700" rx="0.5"/>
      <ellipse cx="0" cy="0" rx="2" ry="1.5" fill="#FFD700" stroke="#F6AD55" stroke-width="0.5"/>
      <rect x="-2.5" y="-0.5" width="1" height="1" fill="#FFD700" rx="0.5"/>
      <rect x="1.5" y="-0.5" width="1" height="1" fill="#FFD700" rx="0.5"/>
      <rect x="-1.5" y="5" width="3" height="0.5" fill="#F6AD55"/>
    </g>
    
    <!-- Promotional banner -->
    <rect x="-25" y="-20" width="50" height="4" fill="white" stroke="#553C9A" stroke-width="1" rx="2" opacity="0.9"/>
    <text x="0" y="-17" text-anchor="middle" font-family="Arial, sans-serif" font-size="3" fill="#553C9A" font-weight="bold">PROMOTIONAL</text>
    
    <!-- Stars for excellence -->
    <g transform="translate(-22,-12)">
      <polygon points="0,-2 0.5,-0.5 2,-0.5 0.8,0.5 1.2,2 0,1 -1.2,2 -0.8,0.5 -2,-0.5 -0.5,-0.5" fill="#FFD700" stroke="#553C9A" stroke-width="0.3"/>
    </g>
    <g transform="translate(22,-12)">
      <polygon points="0,-2 0.5,-0.5 2,-0.5 0.8,0.5 1.2,2 0,1 -1.2,2 -0.8,0.5 -2,-0.5 -0.5,-0.5" fill="#FFD700" stroke="#553C9A" stroke-width="0.3"/>
    </g>
  </g>
  
  <!-- Corporate promotional text -->
  <text x="50" y="85" text-anchor="middle" font-family="Arial, sans-serif" font-size="5" fill="#553C9A" font-weight="bold">CORPORATE PROMO</text>
</svg>