<svg xmlns="http://www.w3.org/2000/svg" viewBox="0 0 200 200" width="200" height="200">
  <rect width="200" height="200" fill="#fff3cd" stroke="#ffc107" stroke-width="2" rx="10"/>
  <circle cx="100" cy="60" r="20" fill="#ffc107"/>
  <circle cx="95" cy="55" r="3" fill="#ffffff"/>
  <circle cx="105" cy="55" r="3" fill="#ffffff"/>
  <path d="M90 65 Q100 70 110 65" stroke="#ffffff" stroke-width="2" fill="none"/>
  <rect x="85" y="80" width="30" height="50" fill="#ffc107" rx="15"/>
  <path d="M70 90 Q85 85 85 100 Q85 115 70 110" stroke="#ffc107" stroke-width="8" fill="none" stroke-linecap="round"/>
  <path d="M130 90 Q115 85 115 100 Q115 115 130 110" stroke="#ffc107" stroke-width="8" fill="none" stroke-linecap="round"/>
  <rect x="90" y="130" width="8" height="30" fill="#ffc107"/>
  <rect x="102" y="130" width="8" height="30" fill="#ffc107"/>
  <ellipse cx="94" cy="165" rx="8" ry="5" fill="#6c757d"/>
  <ellipse cx="106" cy="165" rx="8" ry="5" fill="#6c757d"/>
  <text x="100" y="185" text-anchor="middle" font-family="Arial, sans-serif" font-size="12" fill="#333">Ergonomic Design</text>
</svg>