<svg xmlns="http://www.w3.org/2000/svg" viewBox="0 0 100 100" width="100" height="100">
  <defs>
    <linearGradient id="deliveryGradient" x1="0%" y1="0%" x2="100%" y2="100%">
      <stop offset="0%" style="stop-color:#f59e0b;stop-opacity:1" />
      <stop offset="100%" style="stop-color:#d97706;stop-opacity:1" />
    </linearGradient>
  </defs>
  
  <!-- Background circle -->
  <circle cx="50" cy="50" r="45" fill="url(#deliveryGradient)" opacity="0.1"/>
  
  <!-- Delivery truck -->
  <g transform="translate(15, 35)">
    <!-- Truck body -->
    <rect x="0" y="10" width="35" height="15" fill="url(#deliveryGradient)" rx="2"/>
    <!-- Truck cab -->
    <rect x="35" y="5" width="15" height="20" fill="#fbbf24" rx="2"/>
    <!-- Wheels -->
    <circle cx="10" cy="30" r="4" fill="#374151" stroke="#111827" stroke-width="1"/>
    <circle cx="10" cy="30" r="2" fill="#6b7280"/>
    <circle cx="40" cy="30" r="4" fill="#374151" stroke="#111827" stroke-width="1"/>
    <circle cx="40" cy="30" r="2" fill="#6b7280"/>
    <!-- Window -->
    <rect x="37" y="8" width="8" height="6" fill="#bfdbfe" rx="1"/>
    <!-- Door handle -->
    <circle cx="47" cy="15" r="1" fill="#374151"/>
  </g>
  
  <!-- Speed lines -->
  <g stroke="#f59e0b" stroke-width="2" stroke-linecap="round" opacity="0.6">
    <line x1="5" y1="40" x2="12" y2="40"/>
    <line x1="8" y1="50" x2="15" y2="50"/>
    <line x1="5" y1="60" x2="12" y2="60"/>
  </g>
  
  <!-- Clock -->
  <g transform="translate(70, 15)">
    <circle cx="10" cy="10" r="8" fill="#ffffff" stroke="#f59e0b" stroke-width="2"/>
    <!-- Clock hands -->
    <line x1="10" y1="10" x2="10" y2="6" stroke="#374151" stroke-width="1.5" stroke-linecap="round"/>
    <line x1="10" y1="10" x2="13" y2="10" stroke="#374151" stroke-width="1" stroke-linecap="round"/>
    <!-- Clock center -->
    <circle cx="10" cy="10" r="1" fill="#374151"/>
  </g>
  
  <!-- Package -->
  <g transform="translate(65, 65)">
    <rect x="0" y="0" width="12" height="10" fill="#92400e" stroke="#78350f" stroke-width="1" rx="1"/>
    <!-- Package tape -->
    <line x1="6" y1="0" x2="6" y2="10" stroke="#fbbf24" stroke-width="1.5"/>
    <line x1="0" y1="5" x2="12" y2="5" stroke="#fbbf24" stroke-width="1.5"/>
  </g>
</svg>