<svg width="100" height="100" xmlns="http://www.w3.org/2000/svg">
  <defs>
    <linearGradient id="deliveryGrad" x1="0%" y1="0%" x2="100%" y2="100%">
      <stop offset="0%" style="stop-color:#9b59b6;stop-opacity:1" />
      <stop offset="100%" style="stop-color:#8e44ad;stop-opacity:1" />
    </linearGradient>
    <linearGradient id="globeGrad" x1="0%" y1="0%" x2="100%" y2="100%">
      <stop offset="0%" style="stop-color:#3498db;stop-opacity:1" />
      <stop offset="100%" style="stop-color:#2980b9;stop-opacity:1" />
    </linearGradient>
    <linearGradient id="planeGrad" x1="0%" y1="0%" x2="100%" y2="100%">
      <stop offset="0%" style="stop-color:#ecf0f1;stop-opacity:1" />
      <stop offset="100%" style="stop-color:#bdc3c7;stop-opacity:1" />
    </linearGradient>
  </defs>
  
  <!-- Background circle -->
  <circle cx="50" cy="50" r="45" fill="url(#deliveryGrad)"/>
  
  <!-- Globe -->
  <circle cx="50" cy="50" r="25" fill="url(#globeGrad)"/>
  
  <!-- Continents -->
  <g fill="#27ae60" opacity="0.8">
    <!-- North America -->
    <path d="M 35 35 Q 40 30 45 35 L 45 45 Q 40 50 35 45 Z"/>
    
    <!-- Europe/Africa -->
    <path d="M 50 30 Q 55 25 60 30 L 60 40 Q 58 45 55 50 L 50 55 Q 48 50 50 45 Z"/>
    
    <!-- Asia -->
    <path d="M 62 32 Q 68 28 72 35 L 70 45 Q 65 48 62 42 Z"/>
    
    <!-- Australia -->
    <ellipse cx="65" cy="60" rx="4" ry="2"/>
  </g>
  
  <!-- Globe grid lines -->
  <g stroke="#2980b9" stroke-width="0.5" fill="none" opacity="0.6">
    <!-- Latitude lines -->
    <ellipse cx="50" cy="50" rx="25" ry="8"/>
    <ellipse cx="50" cy="50" rx="25" ry="16"/>
    <ellipse cx="50" cy="50" rx="25" ry="25"/>
    
    <!-- Longitude lines -->
    <ellipse cx="50" cy="50" rx="8" ry="25"/>
    <ellipse cx="50" cy="50" rx="16" ry="25"/>
    <line x1="50" y1="25" x2="50" y2="75"/>
  </g>
  
  <!-- Airplane -->
  <g transform="translate(75,25) rotate(45)">
    <!-- Fuselage -->
    <ellipse cx="0" cy="0" rx="8" ry="2" fill="url(#planeGrad)"/>
    
    <!-- Wings -->
    <ellipse cx="-2" cy="0" rx="3" ry="6" fill="url(#planeGrad)"/>
    
    <!-- Tail -->
    <polygon points="-6,-1 -8,-1 -8,1 -6,1" fill="url(#planeGrad)"/>
    <polygon points="-7,-2 -8,-2 -8,-1 -7,-1" fill="url(#planeGrad)"/>
    <polygon points="-7,1 -8,1 -8,2 -7,2" fill="url(#planeGrad)"/>
    
    <!-- Nose -->
    <polygon points="6,-1 8,0 6,1" fill="#95a5a6"/>
  </g>
  
  <!-- Flight path -->
  <path d="M 20 20 Q 35 15 50 25 Q 65 35 80 30" stroke="#f1c40f" stroke-width="2" fill="none" stroke-dasharray="3,2"/>
  
  <!-- Shipping boxes -->
  <g transform="translate(15,70)">
    <!-- Box 1 -->
    <rect x="0" y="0" width="8" height="6" fill="#e67e22"/>
    <rect x="0" y="0" width="8" height="2" fill="#f39c12"/>
    <line x1="4" y1="0" x2="4" y2="6" stroke="#d35400" stroke-width="0.5"/>
    <line x1="0" y1="3" x2="8" y2="3" stroke="#d35400" stroke-width="0.5"/>
    
    <!-- Box 2 -->
    <rect x="10" y="2" width="6" height="4" fill="#3498db"/>
    <rect x="10" y="2" width="6" height="1.5" fill="#5dade2"/>
    <line x1="13" y1="2" x2="13" y2="6" stroke="#2980b9" stroke-width="0.5"/>
  </g>
  
  <!-- Delivery truck -->
  <g transform="translate(75,70)">
    <!-- Truck body -->
    <rect x="0" y="0" width="12" height="6" rx="1" fill="#e74c3c"/>
    
    <!-- Cab -->
    <rect x="10" y="1" width="4" height="4" rx="0.5" fill="#c0392b"/>
    
    <!-- Wheels -->
    <circle cx="3" cy="7" r="2" fill="#2c3e50"/>
    <circle cx="3" cy="7" r="1" fill="#95a5a6"/>
    <circle cx="11" cy="7" r="2" fill="#2c3e50"/>
    <circle cx="11" cy="7" r="1" fill="#95a5a6"/>
    
    <!-- Window -->
    <rect x="11" y="2" width="2" height="2" fill="#85c1e9"/>
  </g>
  
  <!-- Speed lines -->
  <g stroke="#f39c12" stroke-width="1" opacity="0.7">
    <line x1="10" y1="15" x2="15" y2="15"/>
    <line x1="12" y1="18" x2="18" y2="18"/>
    <line x1="8" y1="21" x2="13" y2="21"/>
  </g>
  
  <!-- Location pins -->
  <g fill="#e74c3c">
    <path d="M 30 40 C 30 37 32 35 35 35 C 38 35 40 37 40 40 C 40 42 35 47 35 47 C 35 47 30 42 30 40 Z"/>
    <circle cx="35" cy="39" r="2" fill="white"/>
    
    <path d="M 60 55 C 60 53 61.5 51.5 63.5 51.5 C 65.5 51.5 67 53 67 55 C 67 56.5 63.5 60 63.5 60 C 63.5 60 60 56.5 60 55 Z"/>
    <circle cx="63.5" cy="54.5" r="1.5" fill="white"/>
  </g>
  
  <!-- Clock/Time indicator -->
  <circle cx="20" cy="30" r="6" fill="#f1c40f"/>
  <circle cx="20" cy="30" r="5" fill="white"/>
  <line x1="20" y1="30" x2="20" y2="27" stroke="#2c3e50" stroke-width="1"/>
  <line x1="20" y1="30" x2="22" y2="30" stroke="#2c3e50" stroke-width="1"/>
  <circle cx="20" cy="30" r="0.5" fill="#2c3e50"/>
</svg>