<svg xmlns="http://www.w3.org/2000/svg" viewBox="0 0 100 100" width="100" height="100">
  <defs>
    <linearGradient id="oceanGradient" x1="0%" y1="0%" x2="0%" y2="100%">
      <stop offset="0%" style="stop-color:#87CEEB;stop-opacity:1" />
      <stop offset="30%" style="stop-color:#4682B4;stop-opacity:1" />
      <stop offset="100%" style="stop-color:#191970;stop-opacity:1" />
    </linearGradient>
    <linearGradient id="boatGradient" x1="0%" y1="0%" x2="0%" y2="100%">
      <stop offset="0%" style="stop-color:#8B4513;stop-opacity:1" />
      <stop offset="100%" style="stop-color:#654321;stop-opacity:1" />
    </linearGradient>
    <linearGradient id="fishGradient" x1="0%" y1="0%" x2="100%" y2="0%">
      <stop offset="0%" style="stop-color:#FF6347;stop-opacity:1" />
      <stop offset="100%" style="stop-color:#FF4500;stop-opacity:1" />
    </linearGradient>
    <radialGradient id="sunGradient" cx="50%" cy="50%" r="50%">
      <stop offset="0%" style="stop-color:#FFD700;stop-opacity:1" />
      <stop offset="100%" style="stop-color:#FFA500;stop-opacity:1" />
    </radialGradient>
  </defs>
  
  <!-- Ocean Background -->
  <rect width="100" height="100" fill="url(#oceanGradient)"/>
  
  <!-- Sun -->
  <circle cx="20" cy="20" r="12" fill="url(#sunGradient)" opacity="0.9"/>
  <g stroke="#FFD700" stroke-width="1.5" opacity="0.7">
    <line x1="20" y1="3" x2="20" y2="8"/>
    <line x1="20" y1="32" x2="20" y2="37"/>
    <line x1="3" y1="20" x2="8" y2="20"/>
    <line x1="32" y1="20" x2="37" y2="20"/>
    <line x1="9.5" y1="9.5" x2="13.1" y2="13.1"/>
    <line x1="26.9" y1="26.9" x2="30.5" y2="30.5"/>
    <line x1="30.5" y1="9.5" x2="26.9" y2="13.1"/>
    <line x1="13.1" y1="26.9" x2="9.5" y2="30.5"/>
  </g>
  
  <!-- Clouds -->
  <ellipse cx="70" cy="15" rx="8" ry="5" fill="#FFFFFF" opacity="0.8"/>
  <ellipse cx="75" cy="13" rx="6" ry="4" fill="#FFFFFF" opacity="0.8"/>
  <ellipse cx="80" cy="15" rx="7" ry="4" fill="#FFFFFF" opacity="0.8"/>
  
  <!-- Waves -->
  <path d="M 0 40 Q 10 35 20 40 T 40 40 T 60 40 T 80 40 T 100 40" stroke="#FFFFFF" stroke-width="2" fill="none" opacity="0.6"/>
  <path d="M 0 45 Q 15 42 30 45 T 60 45 T 90 45 T 100 45" stroke="#FFFFFF" stroke-width="1.5" fill="none" opacity="0.4"/>
  <path d="M 0 50 Q 12 48 24 50 T 48 50 T 72 50 T 96 50 T 100 50" stroke="#FFFFFF" stroke-width="1" fill="none" opacity="0.3"/>
  
  <!-- Fishing Boat -->
  <g transform="translate(45,35)">
    <!-- Boat hull -->
    <path d="M -15 8 Q -15 12 -10 12 L 10 12 Q 15 12 15 8 L 12 5 L -12 5 Z" fill="url(#boatGradient)"/>
    <!-- Boat deck -->
    <rect x="-12" y="3" width="24" height="2" fill="#A0522D" rx="1"/>
    <!-- Mast -->
    <rect x="-1" y="-8" width="2" height="11" fill="#8B4513"/>
    <!-- Sail -->
    <path d="M 1 -8 Q 8 -6 8 0 L 1 2 Z" fill="#FFFFFF" stroke="#D3D3D3" stroke-width="0.5"/>
    <!-- Flag -->
    <polygon points="1,-8 6,-6 1,-4" fill="#FF0000"/>
  </g>
  
  <!-- Fishing Rod -->
  <g transform="translate(50,35)">
    <!-- Rod -->
    <line x1="5" y1="3" x2="25" y2="-10" stroke="#8B4513" stroke-width="1.5"/>
    <!-- Fishing line -->
    <line x1="25" y1="-10" x2="35" y2="25" stroke="#000000" stroke-width="0.8" opacity="0.7"/>
    <!-- Hook -->
    <circle cx="35" cy="25" r="1" fill="none" stroke="#C0C0C0" stroke-width="0.8"/>
  </g>
  
  <!-- Fish underwater -->
  <g transform="translate(70,60)">
    <!-- Fish body -->
    <ellipse cx="0" cy="0" rx="8" ry="4" fill="url(#fishGradient)"/>
    <!-- Fish tail -->
    <polygon points="-8,0 -12,-3 -12,3" fill="#FF4500"/>
    <!-- Fish eye -->
    <circle cx="3" cy="-1" r="1.5" fill="#FFFFFF"/>
    <circle cx="3" cy="-1" r="0.8" fill="#000000"/>
    <!-- Fish fins -->
    <ellipse cx="-2" cy="3" rx="3" ry="1.5" fill="#FF6347" opacity="0.8"/>
    <ellipse cx="2" cy="-3" rx="2" ry="1" fill="#FF6347" opacity="0.8"/>
  </g>
  
  <!-- Smaller fish -->
  <g transform="translate(25,70) scale(0.6)">
    <ellipse cx="0" cy="0" rx="6" ry="3" fill="#4169E1"/>
    <polygon points="-6,0 -9,-2 -9,2" fill="#1E90FF"/>
    <circle cx="2" cy="-0.5" r="1" fill="#FFFFFF"/>
    <circle cx="2" cy="-0.5" r="0.5" fill="#000000"/>
  </g>
  
  <g transform="translate(15,85) scale(0.5)">
    <ellipse cx="0" cy="0" rx="5" ry="2.5" fill="#32CD32"/>
    <polygon points="-5,0 -7,-1.5 -7,1.5" fill="#228B22"/>
    <circle cx="1.5" cy="-0.5" r="0.8" fill="#FFFFFF"/>
    <circle cx="1.5" cy="-0.5" r="0.4" fill="#000000"/>
  </g>
  
  <!-- Seaweed -->
  <g transform="translate(10,75)">
    <path d="M 0 25 Q 2 20 0 15 Q -2 10 0 5 Q 2 0 0 -5" stroke="#228B22" stroke-width="2" fill="none"/>
    <path d="M 5 25 Q 7 18 5 12 Q 3 8 5 3 Q 7 -2 5 -7" stroke="#32CD32" stroke-width="1.5" fill="none"/>
  </g>
  
  <g transform="translate(85,80)">
    <path d="M 0 20 Q -2 16 0 12 Q 2 8 0 4 Q -2 0 0 -4" stroke="#228B22" stroke-width="1.8" fill="none"/>
    <path d="M 3 20 Q 5 15 3 10 Q 1 6 3 2 Q 5 -2 3 -6" stroke="#32CD32" stroke-width="1.2" fill="none"/>
  </g>
  
  <!-- Bubbles -->
  <circle cx="30" cy="65" r="1.5" fill="#FFFFFF" opacity="0.6"/>
  <circle cx="35" cy="58" r="1" fill="#FFFFFF" opacity="0.5"/>
  <circle cx="28" cy="55" r="0.8" fill="#FFFFFF" opacity="0.4"/>
  
  <circle cx="75" cy="75" r="1.2" fill="#FFFFFF" opacity="0.5"/>
  <circle cx="78" cy="68" r="0.9" fill="#FFFFFF" opacity="0.4"/>
  <circle cx="72" cy="65" r="0.7" fill="#FFFFFF" opacity="0.3"/>
  
  <!-- Anchor (optional detail) -->
  <g transform="translate(90,90) scale(0.8)">
    <rect x="-0.5" y="-8" width="1" height="10" fill="#696969"/>
    <circle cx="0" cy="-8" r="2" fill="none" stroke="#696969" stroke-width="1"/>
    <path d="M -3 2 Q -3 4 -1 4 L 1 4 Q 3 4 3 2 L 3 0 L 2 0 L 2 -1 L -2 -1 L -2 0 L -3 0 Z" fill="#696969"/>
  </g>
</svg>