<svg xmlns="http://www.w3.org/2000/svg" viewBox="0 0 100 100" width="100" height="100">
  <defs>
    <linearGradient id="materialGradient" x1="0%" y1="0%" x2="100%" y2="100%">
      <stop offset="0%" style="stop-color:#10b981;stop-opacity:1" />
      <stop offset="100%" style="stop-color:#059669;stop-opacity:1" />
    </linearGradient>
  </defs>
  
  <!-- Background circle -->
  <circle cx="50" cy="50" r="45" fill="url(#materialGradient)" opacity="0.1"/>
  
  <!-- Shield shape for quality -->
  <path d="M50 15 L65 25 L65 45 Q65 55 50 65 Q35 55 35 45 L35 25 Z" fill="url(#materialGradient)" stroke="#047857" stroke-width="2"/>
  
  <!-- Checkmark -->
  <path d="M42 40 L47 45 L58 34" fill="none" stroke="#ffffff" stroke-width="3" stroke-linecap="round" stroke-linejoin="round"/>
  
  <!-- Material layers -->
  <g transform="translate(20, 70)">
    <!-- Layer 1 -->
    <rect x="0" y="0" width="60" height="4" fill="#34d399" rx="2"/>
    <!-- Layer 2 -->
    <rect x="0" y="6" width="60" height="4" fill="#10b981" rx="2"/>
    <!-- Layer 3 -->
    <rect x="0" y="12" width="60" height="4" fill="#059669" rx="2"/>
  </g>
  
  <!-- Water droplets -->
  <g opacity="0.7">
    <circle cx="25" cy="35" r="2" fill="#60a5fa"/>
    <circle cx="75" cy="40" r="1.5" fill="#60a5fa"/>
    <circle cx="30" cy="55" r="1" fill="#60a5fa"/>
  </g>
  
  <!-- Quality stars -->
  <g transform="translate(70, 20)">
    <path d="M5 0 L6 3 L10 3 L7 5 L8 9 L5 7 L2 9 L3 5 L0 3 L4 3 Z" fill="#fbbf24"/>
  </g>
  <g transform="translate(15, 20)">
    <path d="M5 0 L6 3 L10 3 L7 5 L8 9 L5 7 L2 9 L3 5 L0 3 L4 3 Z" fill="#fbbf24" transform="scale(0.7)"/>
  </g>
</svg>