<svg xmlns="http://www.w3.org/2000/svg" viewBox="0 0 160 100" width="160" height="100">
  <defs>
    <linearGradient id="sportsGradient" x1="0%" y1="0%" x2="100%" y2="100%">
      <stop offset="0%" style="stop-color:#ef4444;stop-opacity:1" />
      <stop offset="100%" style="stop-color:#dc2626;stop-opacity:1" />
    </linearGradient>
  </defs>
  
  <!-- Background -->
  <rect width="160" height="100" fill="#fef2f2"/>
  
  <!-- Main sports bag body -->
  <ellipse cx="80" cy="55" rx="60" ry="25" fill="url(#sportsGradient)" stroke="#b91c1c" stroke-width="2"/>
  
  <!-- Side panels -->
  <ellipse cx="25" cy="55" rx="8" ry="20" fill="#f87171" stroke="#dc2626" stroke-width="1"/>
  <ellipse cx="135" cy="55" rx="8" ry="20" fill="#f87171" stroke="#dc2626" stroke-width="1"/>
  
  <!-- Top zipper -->
  <path d="M30 45 Q80 35 130 45" fill="none" stroke="#ffffff" stroke-width="2" opacity="0.8"/>
  
  <!-- Zipper pull -->
  <circle cx="130" cy="45" r="2" fill="#fbbf24"/>
  
  <!-- Handles -->
  <path d="M60 40 Q80 30 100 40" fill="none" stroke="#b91c1c" stroke-width="4" stroke-linecap="round"/>
  
  <!-- Shoulder strap -->
  <path d="M30 50 Q10 35 5 50 Q10 65 30 60" fill="none" stroke="#7f1d1d" stroke-width="3" stroke-linecap="round"/>
  <path d="M130 50 Q150 35 155 50 Q150 65 130 60" fill="none" stroke="#7f1d1d" stroke-width="3" stroke-linecap="round"/>
  
  <!-- Front pocket -->
  <ellipse cx="80" cy="50" rx="25" ry="8" fill="#f87171" stroke="#dc2626" stroke-width="1"/>
  <path d="M60 50 Q80 45 100 50" fill="none" stroke="#ffffff" stroke-width="1" opacity="0.6"/>
  
  <!-- Side mesh pockets -->
  <g opacity="0.7">
    <rect x="15" y="65" width="12" height="15" fill="#374151" stroke="#111827" stroke-width="1" rx="2"/>
    <line x1="17" y1="67" x2="25" y2="67" stroke="#6b7280" stroke-width="0.5"/>
    <line x1="17" y1="70" x2="25" y2="70" stroke="#6b7280" stroke-width="0.5"/>
    <line x1="17" y1="73" x2="25" y2="73" stroke="#6b7280" stroke-width="0.5"/>
    <line x1="17" y1="76" x2="25" y2="76" stroke="#6b7280" stroke-width="0.5"/>
    
    <rect x="133" y="65" width="12" height="15" fill="#374151" stroke="#111827" stroke-width="1" rx="2"/>
    <line x1="135" y1="67" x2="143" y2="67" stroke="#6b7280" stroke-width="0.5"/>
    <line x1="135" y1="70" x2="143" y2="70" stroke="#6b7280" stroke-width="0.5"/>
    <line x1="135" y1="73" x2="143" y2="73" stroke="#6b7280" stroke-width="0.5"/>
    <line x1="135" y1="76" x2="143" y2="76" stroke="#6b7280" stroke-width="0.5"/>
  </g>
  
  <!-- Sports logo -->
  <g transform="translate(70, 50)">
    <circle cx="10" cy="5" r="8" fill="#ffffff" opacity="0.9"/>
    <path d="M5 2 L10 8 L15 2" fill="none" stroke="#ef4444" stroke-width="2" stroke-linecap="round" stroke-linejoin="round"/>
    <circle cx="10" cy="5" r="2" fill="#ef4444"/>
  </g>
  
  <!-- Waterproof indicators -->
  <g opacity="0.6">
    <circle cx="50" cy="65" r="1.5" fill="#06b6d4"/>
    <circle cx="110" cy="65" r="2" fill="#06b6d4"/>
    <circle cx="80" cy="70" r="1" fill="#06b6d4"/>
  </g>
</svg>