<svg xmlns="http://www.w3.org/2000/svg" viewBox="0 0 100 100" width="100" height="100">
  <defs>
    <linearGradient id="userGrad" x1="0%" y1="0%" x2="100%" y2="100%">
      <stop offset="0%" style="stop-color:#dc2626;stop-opacity:1" />
      <stop offset="100%" style="stop-color:#b91c1c;stop-opacity:1" />
    </linearGradient>
  </defs>
  
  <!-- Background circle -->
  <circle cx="50" cy="50" r="45" fill="url(#userGrad)" stroke="#991b1b" stroke-width="2"/>
  
  <!-- User guide icon -->
  <g transform="translate(50,50)">
    <!-- Book/manual -->
    <rect x="-15" y="-18" width="25" height="30" fill="white" opacity="0.9" rx="2"/>
    <rect x="-13" y="-15" width="21" height="2" fill="#dc2626" opacity="0.8"/>
    <rect x="-13" y="-11" width="18" height="1.5" fill="#dc2626" opacity="0.6"/>
    <rect x="-13" y="-8" width="20" height="1.5" fill="#dc2626" opacity="0.6"/>
    <rect x="-13" y="-5" width="16" height="1.5" fill="#dc2626" opacity="0.6"/>
    <rect x="-13" y="-2" width="19" height="1.5" fill="#dc2626" opacity="0.6"/>
    <rect x="-13" y="1" width="15" height="1.5" fill="#dc2626" opacity="0.6"/>
    <rect x="-13" y="4" width="17" height="1.5" fill="#dc2626" opacity="0.6"/>
    
    <!-- User icon -->
    <g transform="translate(18,-8) scale(0.8)">
      <!-- Head -->
      <circle cx="0" cy="-8" r="4" fill="white" opacity="0.9"/>
      <!-- Body -->
      <ellipse cx="0" cy="2" rx="6" ry="8" fill="white" opacity="0.9"/>
    </g>
    
    <!-- Question mark -->
    <g transform="translate(-18,8) scale(0.6)">
      <circle cx="0" cy="0" r="8" fill="white" opacity="0.8"/>
      <path d="M-2,-4 Q0,-6 2,-4 Q2,-2 0,-1 L0,1" stroke="#dc2626" stroke-width="2" fill="none"/>
      <circle cx="0" cy="4" r="1" fill="#dc2626"/>
    </g>
    
    <!-- Arrow pointing from question to book -->
    <path d="M-8,8 L-2,2" stroke="white" stroke-width="2" opacity="0.7" marker-end="url(#arrowhead)"/>
  </g>
  
  <defs>
    <marker id="arrowhead" markerWidth="10" markerHeight="7" refX="9" refY="3.5" orient="auto">
      <polygon points="0 0, 10 3.5, 0 7" fill="white" opacity="0.7"/>
    </marker>
  </defs>
</svg>